<svg xmlns="http://www.w3.org/2000/svg" viewBox="0 0 1400 600" width="1400" height="600">
  <defs>
    <!-- 背景渐变：奶油白到暖米色 -->
    <linearGradient id="bg" x1="0%" y1="0%" x2="100%" y2="100%">
      <stop offset="0%" style="stop-color:#fef9f0"/>
      <stop offset="50%" style="stop-color:#fdf3e3"/>
      <stop offset="100%" style="stop-color:#fae8cc"/>
    </linearGradient>
    <!-- 桌面 -->
    <linearGradient id="desk" x1="0%" y1="0%" x2="0%" y2="100%">
      <stop offset="0%" style="stop-color:#e8d5b7"/>
      <stop offset="100%" style="stop-color:#d4b896"/>
    </linearGradient>
    <!-- 笔记本屏幕 -->
    <linearGradient id="screen" x1="0%" y1="0%" x2="100%" y2="100%">
      <stop offset="0%" style="stop-color:#1e2d3d"/>
      <stop offset="100%" style="stop-color:#2d4a63"/>
    </linearGradient>
    <!-- 笔记本机身 -->
    <linearGradient id="laptopBody" x1="0%" y1="0%" x2="0%" y2="100%">
      <stop offset="0%" style="stop-color:#e8e0d5"/>
      <stop offset="100%" style="stop-color:#d5c9ba"/>
    </linearGradient>
    <!-- 咖啡液体 -->
    <radialGradient id="coffeeLiquid" cx="50%" cy="40%" r="55%">
      <stop offset="0%" style="stop-color:#c8855a"/>
      <stop offset="100%" style="stop-color:#8b4513"/>
    </radialGradient>
    <!-- 奶泡 -->
    <radialGradient id="milkFoam" cx="50%" cy="40%" r="55%">
      <stop offset="0%" style="stop-color:#fff8f0"/>
      <stop offset="100%" style="stop-color:#f5e6d0"/>
    </radialGradient>
    <!-- 笔记本封面渐变 -->
    <linearGradient id="notecover" x1="0%" y1="0%" x2="100%" y2="100%">
      <stop offset="0%" style="stop-color:#f87171"/>
      <stop offset="100%" style="stop-color:#ef4444"/>
    </linearGradient>
    <!-- 屏幕光晕 -->
    <radialGradient id="screenGlow" cx="50%" cy="50%" r="50%">
      <stop offset="0%" style="stop-color:#60a5fa;stop-opacity:0.15"/>
      <stop offset="100%" style="stop-color:#60a5fa;stop-opacity:0"/>
    </radialGradient>
    <!-- 投影滤镜 -->
    <filter id="shadow" x="-10%" y="-10%" width="120%" height="130%">
      <feDropShadow dx="0" dy="6" stdDeviation="10" flood-color="#c8a878" flood-opacity="0.25"/>
    </filter>
    <filter id="shadowSm" x="-10%" y="-10%" width="120%" height="130%">
      <feDropShadow dx="0" dy="3" stdDeviation="5" flood-color="#c8a878" flood-opacity="0.2"/>
    </filter>
    <filter id="blur">
      <feGaussianBlur stdDeviation="18"/>
    </filter>
    <filter id="blurSm">
      <feGaussianBlur stdDeviation="5"/>
    </filter>
    <filter id="softGlow">
      <feGaussianBlur stdDeviation="2" result="blur"/>
      <feMerge><feMergeNode in="blur"/><feMergeNode in="SourceGraphic"/></feMerge>
    </filter>
  </defs>

  <!-- 背景 -->
  <rect width="1400" height="600" fill="url(#bg)"/>

  <!-- 背景装饰圆 -->
  <circle cx="100" cy="100" r="180" fill="#f5c98a" opacity="0.12"/>
  <circle cx="1300" cy="500" r="220" fill="#f5a05a" opacity="0.10"/>
  <circle cx="1350" cy="100" r="130" fill="#fcd5a0" opacity="0.15"/>
  <circle cx="50" cy="500" r="120" fill="#f5c98a" opacity="0.10"/>
  <!-- 小装饰点 -->
  <circle cx="300" cy="60" r="4" fill="#f5a05a" opacity="0.3"/>
  <circle cx="380" cy="90" r="2.5" fill="#f5a05a" opacity="0.2"/>
  <circle cx="250" cy="100" r="3" fill="#e8956a" opacity="0.25"/>
  <circle cx="1050" cy="50" r="3.5" fill="#f5a05a" opacity="0.25"/>
  <circle cx="1150" cy="80" r="2" fill="#e8956a" opacity="0.2"/>
  <circle cx="1200" cy="40" r="4" fill="#f5a05a" opacity="0.2"/>

  <!-- 桌面 -->
  <rect x="0" y="440" width="1400" height="160" fill="url(#desk)"/>
  <rect x="0" y="440" width="1400" height="2" fill="#c8a878" opacity="0.5"/>
  <!-- 桌面木纹 -->
  <path d="M 0 465 Q 350 462 700 466 Q 1050 470 1400 465" stroke="#c4a070" stroke-width="1" fill="none" opacity="0.3"/>
  <path d="M 0 495 Q 350 492 700 496 Q 1050 500 1400 495" stroke="#c4a070" stroke-width="0.8" fill="none" opacity="0.2"/>
  <path d="M 0 525 Q 400 522 800 526 Q 1100 530 1400 525" stroke="#c4a070" stroke-width="0.7" fill="none" opacity="0.15"/>
  <!-- 桌面高光 -->
  <rect x="0" y="440" width="1400" height="60" fill="white" opacity="0.08"/>

  <!-- ===== 笔记本电脑 ===== -->
  <!-- 屏幕后盖 -->
  <rect x="430" y="105" width="560" height="360" rx="14" fill="#d8d0c5" filter="url(#shadow)"/>
  <!-- 屏幕后盖高光 -->
  <rect x="430" y="105" width="560" height="20" rx="14" fill="white" opacity="0.25"/>
  <!-- logo 装饰 -->
  <circle cx="710" cy="285" r="18" fill="#c8c0b5" opacity="0.5"/>
  <circle cx="710" cy="285" r="12" fill="#b8b0a5" opacity="0.4"/>

  <!-- 屏幕玻璃 -->
  <rect x="444" y="119" width="532" height="332" rx="8" fill="url(#screen)"/>
  <!-- 屏幕光晕 -->
  <rect x="444" y="119" width="532" height="332" rx="8" fill="url(#screenGlow)"/>

  <!-- === 代码编辑器界面 === -->
  <!-- 顶部栏 -->
  <rect x="444" y="119" width="532" height="30" rx="8" fill="#1a1e2e"/>
  <rect x="444" y="137" width="532" height="12" fill="#1a1e2e"/>
  <!-- 交通灯按钮 -->
  <circle cx="464" cy="134" r="5.5" fill="#ff5f56"/>
  <circle cx="482" cy="134" r="5.5" fill="#ffbd2e"/>
  <circle cx="500" cy="134" r="5.5" fill="#27c93f"/>
  <!-- 文件标签 -->
  <rect x="518" y="124" width="88" height="20" rx="3" fill="#2d3250"/>
  <text x="527" y="138" font-family="'Courier New', monospace" font-size="10" fill="#a8b2d8">index.md</text>
  <rect x="610" y="124" width="88" height="20" rx="3" fill="#1a1e2e"/>
  <text x="619" y="138" font-family="'Courier New', monospace" font-size="10" fill="#546480">about.md</text>

  <!-- 侧边栏（文件树） -->
  <rect x="444" y="149" width="100" height="302" fill="#1d2135"/>
  <!-- 文件树项目 -->
  <text x="454" y="168" font-family="'Courier New', monospace" font-size="9" fill="#6b7a99">📁 source</text>
  <text x="460" y="182" font-family="'Courier New', monospace" font-size="9" fill="#6b7a99">  📁 _posts</text>
  <text x="466" y="196" font-family="'Courier New', monospace" font-size="9" fill="#a8c0e8">    📄 hello.md</text>
  <text x="466" y="210" font-family="'Courier New', monospace" font-size="9" fill="#7a8ab0">    📄 git.md</text>
  <text x="466" y="224" font-family="'Courier New', monospace" font-size="9" fill="#7a8ab0">    📄 js.md</text>
  <text x="460" y="238" font-family="'Courier New', monospace" font-size="9" fill="#6b7a99">  📁 img</text>
  <text x="454" y="252" font-family="'Courier New', monospace" font-size="9" fill="#6b7a99">📄 _config.yml</text>

  <!-- 代码内容区 -->
  <rect x="544" y="149" width="432" height="302" fill="#1e2235"/>
  <!-- 行号区 -->
  <rect x="544" y="149" width="32" height="302" fill="#1a1e2e" opacity="0.8"/>

  <!-- 代码内容 -->
  <!-- 行1 -->
  <text x="548" y="167" font-family="'Courier New', monospace" font-size="9" fill="#3d4a66">1</text>
  <text x="582" y="167" font-family="'Courier New', monospace" font-size="10.5" fill="#c792ea">---</text>

  <!-- 行2 -->
  <text x="548" y="183" font-family="'Courier New', monospace" font-size="9" fill="#3d4a66">2</text>
  <text x="582" y="183" font-family="'Courier New', monospace" font-size="10.5" fill="#80cbc4">title:</text>
  <text x="622" y="183" font-family="'Courier New', monospace" font-size="10.5" fill="#c3e88d"> 王俊鑫的博客</text>

  <!-- 行3 -->
  <text x="548" y="199" font-family="'Courier New', monospace" font-size="9" fill="#3d4a66">3</text>
  <text x="582" y="199" font-family="'Courier New', monospace" font-size="10.5" fill="#80cbc4">author:</text>
  <text x="630" y="199" font-family="'Courier New', monospace" font-size="10.5" fill="#f78c6c"> 王俊鑫</text>

  <!-- 行4 -->
  <text x="548" y="215" font-family="'Courier New', monospace" font-size="9" fill="#3d4a66">4</text>
  <text x="582" y="215" font-family="'Courier New', monospace" font-size="10.5" fill="#80cbc4">date:</text>
  <text x="614" y="215" font-family="'Courier New', monospace" font-size="10.5" fill="#f78c6c"> 2026-03-27</text>

  <!-- 行5 -->
  <text x="548" y="231" font-family="'Courier New', monospace" font-size="9" fill="#3d4a66">5</text>
  <text x="582" y="231" font-family="'Courier New', monospace" font-size="10.5" fill="#c792ea">---</text>

  <!-- 行6 空行 -->
  <text x="548" y="247" font-family="'Courier New', monospace" font-size="9" fill="#3d4a66">6</text>

  <!-- 行7 -->
  <text x="548" y="263" font-family="'Courier New', monospace" font-size="9" fill="#3d4a66">7</text>
  <text x="582" y="263" font-family="'Courier New', monospace" font-size="10.5" fill="#c792ea">#</text>
  <text x="596" y="263" font-family="'Courier New', monospace" font-size="10.5" fill="#546e7a"> 记录学习与思考</text>

  <!-- 行8 -->
  <text x="548" y="279" font-family="'Courier New', monospace" font-size="9" fill="#3d4a66">8</text>

  <!-- 行9 -->
  <text x="548" y="295" font-family="'Courier New', monospace" font-size="9" fill="#3d4a66">9</text>
  <text x="582" y="295" font-family="'Courier New', monospace" font-size="10.5" fill="#c792ea">const</text>
  <text x="616" y="295" font-family="'Courier New', monospace" font-size="10.5" fill="#82aaff"> blog</text>
  <text x="643" y="295" font-family="'Courier New', monospace" font-size="10.5" fill="#89ddff"> =</text>
  <text x="656" y="295" font-family="'Courier New', monospace" font-size="10.5" fill="#cdd3de"> {</text>

  <!-- 行10 -->
  <text x="548" y="311" font-family="'Courier New', monospace" font-size="9" fill="#3d4a66">10</text>
  <text x="582" y="311" font-family="'Courier New', monospace" font-size="10.5" fill="#80cbc4">  theme:</text>
  <text x="636" y="311" font-family="'Courier New', monospace" font-size="10.5" fill="#c3e88d"> 'Butterfly'</text><text x="714" y="311" font-family="'Courier New', monospace" font-size="10.5" fill="#cdd3de">,</text>

  <!-- 行11 -->
  <text x="548" y="327" font-family="'Courier New', monospace" font-size="9" fill="#3d4a66">11</text>
  <text x="582" y="327" font-family="'Courier New', monospace" font-size="10.5" fill="#80cbc4">  posts:</text>
  <text x="630" y="327" font-family="'Courier New', monospace" font-size="10.5" fill="#f78c6c"> 42</text><text x="648" y="327" font-family="'Courier New', monospace" font-size="10.5" fill="#cdd3de">,</text>

  <!-- 行12 -->
  <text x="548" y="343" font-family="'Courier New', monospace" font-size="9" fill="#3d4a66">12</text>
  <text x="582" y="343" font-family="'Courier New', monospace" font-size="10.5" fill="#80cbc4">  mood:</text>
  <text x="626" y="343" font-family="'Courier New', monospace" font-size="10.5" fill="#c3e88d"> '☕ + 💻'</text>

  <!-- 行13 -->
  <text x="548" y="359" font-family="'Courier New', monospace" font-size="9" fill="#3d4a66">13</text>
  <text x="582" y="359" font-family="'Courier New', monospace" font-size="10.5" fill="#cdd3de">}</text>

  <!-- 行14 空行 -->
  <text x="548" y="375" font-family="'Courier New', monospace" font-size="9" fill="#3d4a66">14</text>

  <!-- 行15 -->
  <text x="548" y="391" font-family="'Courier New', monospace" font-size="9" fill="#3d4a66">15</text>
  <text x="582" y="391" font-family="'Courier New', monospace" font-size="10.5" fill="#c792ea">function</text>
  <text x="636" y="391" font-family="'Courier New', monospace" font-size="10.5" fill="#82aaff"> write</text><text x="672" y="391" font-family="'Courier New', monospace" font-size="10.5" fill="#cdd3de">() {</text>

  <!-- 行16 -->
  <text x="548" y="407" font-family="'Courier New', monospace" font-size="9" fill="#3d4a66">16</text>
  <text x="582" y="407" font-family="'Courier New', monospace" font-size="10.5" fill="#c792ea">  return</text>
  <text x="628" y="407" font-family="'Courier New', monospace" font-size="10.5" fill="#c3e88d"> '用心创作每一篇'</text>

  <!-- 行17 -->
  <text x="548" y="423" font-family="'Courier New', monospace" font-size="9" fill="#3d4a66">17</text>
  <text x="582" y="423" font-family="'Courier New', monospace" font-size="10.5" fill="#cdd3de">}</text>

  <!-- 光标 -->
  <rect x="582" y="432" width="7" height="12" fill="#82aaff" opacity="0.9">
    <animate attributeName="opacity" values="0.9;0;0.9" dur="1.1s" repeatCount="indefinite"/>
  </rect>
  <text x="548" y="443" font-family="'Courier New', monospace" font-size="9" fill="#3d4a66">18</text>

  <!-- 屏幕反光 -->
  <rect x="444" y="119" width="532" height="60" rx="8" fill="white" opacity="0.04"/>

  <!-- 摄像头 -->
  <circle cx="710" cy="126" r="4" fill="#151920"/>
  <circle cx="710" cy="126" r="2.2" fill="#1e2435"/>
  <circle cx="711" cy="125" r="0.8" fill="#2a3245" opacity="0.6"/>

  <!-- 屏幕底边 -->
  <rect x="430" y="465" width="560" height="14" rx="4" fill="#c8c0b5"/>
  <!-- 转轴 -->
  <rect x="468" y="477" width="484" height="5" rx="2.5" fill="#b8b0a5"/>

  <!-- 键盘底座 -->
  <rect x="375" y="481" width="670" height="52" rx="10" fill="url(#laptopBody)" filter="url(#shadowSm)"/>
  <!-- 键盘区域 -->
  <rect x="390" y="489" width="630" height="34" rx="5" fill="#cfc7bc" opacity="0.6"/>

  <!-- 触控板 -->
  <rect x="585" y="493" width="210" height="26" rx="7" fill="#c0b8ad"/>
  <rect x="587" y="495" width="206" height="22" rx="6" fill="#b8b0a5"/>
  <!-- 触控板高光 -->
  <rect x="590" y="496" width="80" height="6" rx="3" fill="white" opacity="0.15"/>

  <!-- 键盘按键 -->
  <!-- 第一行 -->
  <rect x="397" y="492" width="15" height="9" rx="2" fill="#b8b0a5"/>
  <rect x="415" y="492" width="15" height="9" rx="2" fill="#b8b0a5"/>
  <rect x="433" y="492" width="15" height="9" rx="2" fill="#b8b0a5"/>
  <rect x="451" y="492" width="15" height="9" rx="2" fill="#b8b0a5"/>
  <rect x="469" y="492" width="15" height="9" rx="2" fill="#b8b0a5"/>
  <rect x="487" y="492" width="15" height="9" rx="2" fill="#b8b0a5"/>
  <rect x="505" y="492" width="15" height="9" rx="2" fill="#b8b0a5"/>
  <rect x="523" y="492" width="15" height="9" rx="2" fill="#b8b0a5"/>
  <rect x="541" y="492" width="15" height="9" rx="2" fill="#b8b0a5"/>
  <rect x="559" y="492" width="15" height="9" rx="2" fill="#b8b0a5"/>
  <!-- 第二行 -->
  <rect x="400" y="504" width="17" height="9" rx="2" fill="#b8b0a5"/>
  <rect x="420" y="504" width="15" height="9" rx="2" fill="#b8b0a5"/>
  <rect x="438" y="504" width="15" height="9" rx="2" fill="#b8b0a5"/>
  <rect x="456" y="504" width="15" height="9" rx="2" fill="#b8b0a5"/>
  <rect x="474" y="504" width="15" height="9" rx="2" fill="#b8b0a5"/>
  <rect x="492" y="504" width="15" height="9" rx="2" fill="#b8b0a5"/>
  <rect x="510" y="504" width="15" height="9" rx="2" fill="#b8b0a5"/>
  <rect x="528" y="504" width="15" height="9" rx="2" fill="#b8b0a5"/>
  <rect x="546" y="504" width="15" height="9" rx="2" fill="#b8b0a5"/>
  <rect x="564" y="504" width="15" height="9" rx="2" fill="#b8b0a5"/>
  <!-- 空格键 -->
  <rect x="490" y="516" width="90" height="9" rx="2.5" fill="#b8b0a5"/>

  <!-- 笔记本底部投影 -->
  <ellipse cx="710" cy="533" rx="300" ry="12" fill="#c8a878" opacity="0.3" filter="url(#blurSm)"/>

  <!-- ===== 咖啡杯 ===== -->
  <!-- 杯投影 -->
  <ellipse cx="1030" cy="455" rx="68" ry="9" fill="#c8a878" opacity="0.3" filter="url(#blurSm)"/>

  <!-- 托盘 -->
  <ellipse cx="1030" cy="449" rx="72" ry="9" fill="#e8d5b0"/>
  <rect x="960" y="441" width="140" height="9" rx="4.5" fill="#e8d5b0"/>
  <ellipse cx="1030" cy="441" rx="70" ry="8" fill="#f0e0c0"/>
  <!-- 托盘高光 -->
  <ellipse cx="1010" cy="439" rx="28" ry="3" fill="white" opacity="0.4"/>

  <!-- 杯身（圆柱体简化） -->
  <path d="M 980 390 Q 976 441 970 441 L 1090 441 Q 1084 441 1080 390 Z" fill="white" filter="url(#shadowSm)"/>
  <!-- 杯身渐变叠加 -->
  <path d="M 980 390 Q 976 441 970 441 L 1090 441 Q 1084 441 1080 390 Z" fill="none" stroke="#e8d8c0" stroke-width="1"/>
  <!-- 杯身左侧阴影 -->
  <path d="M 980 390 Q 977 435 972 441 L 990 441 Q 988 415 990 390 Z" fill="#f0e8d8" opacity="0.5"/>

  <!-- 杯口椭圆 -->
  <ellipse cx="1030" cy="390" rx="50" ry="9" fill="#f5ece0"/>

  <!-- 咖啡液面 -->
  <ellipse cx="1030" cy="390" rx="46" ry="7.5" fill="url(#coffeeLiquid)"/>

  <!-- 奶泡+拉花 -->
  <ellipse cx="1030" cy="390" rx="32" ry="5" fill="url(#milkFoam)" opacity="0.85"/>
  <!-- 叶片拉花 -->
  <ellipse cx="1030" cy="390" rx="18" ry="3" fill="#d4956a" opacity="0.4" transform="rotate(-10,1030,390)"/>
  <path d="M 1030 384 Q 1022 387 1018 392 Q 1022 395 1030 396 Q 1038 395 1042 392 Q 1038 387 1030 384 Z" fill="#e8b07a" opacity="0.6"/>
  <!-- 叶脉 -->
  <line x1="1030" y1="384" x2="1030" y2="396" stroke="#c87840" stroke-width="0.8" opacity="0.5"/>
  <line x1="1022" y1="388" x2="1028" y2="390" stroke="#c87840" stroke-width="0.6" opacity="0.4"/>
  <line x1="1032" y1="390" x2="1038" y2="388" stroke="#c87840" stroke-width="0.6" opacity="0.4"/>

  <!-- 杯耳 -->
  <path d="M 1080 406 Q 1110 406 1110 420 Q 1110 434 1080 434" stroke="#e8e0d0" stroke-width="6" fill="none"/>
  <path d="M 1080 406 Q 1106 406 1106 420 Q 1106 434 1080 434" stroke="#d8d0c0" stroke-width="2.5" fill="none" opacity="0.5"/>

  <!-- 蒸汽 -->
  <path d="M 1010 374 C 1007 362 1010 352 1007 342" stroke="#d4a878" stroke-width="2" fill="none" opacity="0.4" stroke-linecap="round">
    <animate attributeName="d" values="M 1010 374 C 1007 362 1010 352 1007 342;M 1010 374 C 1013 362 1010 352 1013 342;M 1010 374 C 1007 362 1010 352 1007 342" dur="2.5s" repeatCount="indefinite"/>
    <animate attributeName="opacity" values="0.4;0.15;0.4" dur="2.5s" repeatCount="indefinite"/>
  </path>
  <path d="M 1030 368 C 1027 355 1030 344 1027 334" stroke="#d4a878" stroke-width="2" fill="none" opacity="0.35" stroke-linecap="round">
    <animate attributeName="d" values="M 1030 368 C 1027 355 1030 344 1027 334;M 1030 368 C 1033 355 1030 344 1033 334;M 1030 368 C 1027 355 1030 344 1027 334" dur="2s" repeatCount="indefinite"/>
    <animate attributeName="opacity" values="0.35;0.1;0.35" dur="2s" repeatCount="indefinite"/>
  </path>
  <path d="M 1050 372 C 1047 360 1050 350 1047 340" stroke="#d4a878" stroke-width="2" fill="none" opacity="0.3" stroke-linecap="round">
    <animate attributeName="opacity" values="0.3;0.08;0.3" dur="3s" repeatCount="indefinite"/>
  </path>

  <!-- 杯子品牌小圆标 -->
  <circle cx="1030" cy="415" r="14" fill="none" stroke="#e8d8c8" stroke-width="1.5"/>
  <text x="1022" y="419" font-family="Georgia, serif" font-size="10" fill="#c8a878" font-style="italic">café</text>

  <!-- ===== 纸质笔记本 ===== -->
  <!-- 投影 -->
  <ellipse cx="880" cy="452" rx="68" ry="8" fill="#c8a878" opacity="0.25" filter="url(#blurSm)"/>
  <!-- 封底 -->
  <rect x="828" y="340" width="120" height="112" rx="5" fill="#dc4a3c" transform="rotate(-6,888,396)"/>
  <!-- 封面 -->
  <rect x="826" y="336" width="122" height="113" rx="5" fill="url(#notecover)" transform="rotate(-6,888,392)"/>
  <!-- 封面高光 -->
  <rect x="826" y="336" width="122" height="20" rx="5" fill="white" opacity="0.15" transform="rotate(-6,888,392)"/>
  <!-- 内页（多层叠加感） -->
  <rect x="832" y="342" width="110" height="108" rx="2" fill="#fffef8" transform="rotate(-6,888,396)"/>
  <rect x="831" y="341" width="111" height="108" rx="2" fill="#fff9f0" transform="rotate(-5,888,396)"/>
  <rect x="830" y="340" width="112" height="108" rx="2" fill="#fffef8" transform="rotate(-4,888,394)" opacity="0.9"/>

  <!-- 内页内容 -->
  <!-- 标题 -->
  <rect x="840" y="350" width="70" height="6" rx="3" fill="#f87171" opacity="0.5" transform="rotate(-4,875,353)"/>
  <!-- 横线 -->
  <line x1="836" y1="366" x2="932" y2="359" stroke="#e0d8c8" stroke-width="1" opacity="0.8"/>
  <line x1="836" y1="376" x2="932" y2="369" stroke="#e0d8c8" stroke-width="1" opacity="0.8"/>
  <line x1="836" y1="386" x2="932" y2="379" stroke="#e0d8c8" stroke-width="1" opacity="0.8"/>
  <line x1="836" y1="396" x2="932" y2="389" stroke="#e0d8c8" stroke-width="1" opacity="0.8"/>
  <line x1="836" y1="406" x2="932" y2="399" stroke="#e0d8c8" stroke-width="1" opacity="0.8"/>
  <line x1="836" y1="416" x2="932" y2="409" stroke="#e0d8c8" stroke-width="1" opacity="0.8"/>
  <line x1="836" y1="426" x2="932" y2="419" stroke="#e0d8c8" stroke-width="1" opacity="0.8"/>
  <line x1="836" y1="436" x2="932" y2="429" stroke="#e0d8c8" stroke-width="1" opacity="0.8"/>
  <!-- 手写内容线段 -->
  <line x1="842" y1="367" x2="880" y2="361" stroke="#b0a898" stroke-width="1.3" opacity="0.7"/>
  <line x1="842" y1="377" x2="910" y2="370" stroke="#b0a898" stroke-width="1.3" opacity="0.6"/>
  <line x1="842" y1="387" x2="895" y2="381" stroke="#b0a898" stroke-width="1.3" opacity="0.6"/>
  <line x1="842" y1="397" x2="918" y2="390" stroke="#b0a898" stroke-width="1.3" opacity="0.5"/>
  <!-- 小星号/对号标记 -->
  <text x="836" y="408" font-size="9" fill="#f87171" opacity="0.7">✓</text>
  <line x1="848" y1="407" x2="900" y2="401" stroke="#b0a898" stroke-width="1.3" opacity="0.5"/>
  <!-- 书签条 -->
  <rect x="918" y="336" width="8" height="35" rx="1" fill="#fbbf24" transform="rotate(-4,922,353)"/>

  <!-- 书脊 -->
  <rect x="826" y="336" width="9" height="113" rx="3" fill="#c03030" transform="rotate(-6,888,392)"/>
  <!-- 螺旋线圈 -->
  <circle cx="832" cy="346" r="4" stroke="#888" stroke-width="1.5" fill="none" transform="rotate(-6,888,392)"/>
  <circle cx="832" cy="362" r="4" stroke="#888" stroke-width="1.5" fill="none" transform="rotate(-6,888,392)"/>
  <circle cx="832" cy="378" r="4" stroke="#888" stroke-width="1.5" fill="none" transform="rotate(-6,888,392)"/>
  <circle cx="832" cy="394" r="4" stroke="#888" stroke-width="1.5" fill="none" transform="rotate(-6,888,392)"/>
  <circle cx="832" cy="410" r="4" stroke="#888" stroke-width="1.5" fill="none" transform="rotate(-6,888,392)"/>
  <circle cx="832" cy="426" r="4" stroke="#888" stroke-width="1.5" fill="none" transform="rotate(-6,888,392)"/>

  <!-- ===== 钢笔 ===== -->
  <rect x="920" y="426" width="8" height="52" rx="4" fill="#2563eb" transform="rotate(18,924,452)" filter="url(#shadowSm)"/>
  <rect x="923" y="428" width="2.5" height="36" rx="1" fill="#93c5fd" opacity="0.5" transform="rotate(18,924,452)"/>
  <rect x="920" y="426" width="8" height="7" rx="3" fill="#1d4ed8" transform="rotate(18,924,452)"/>
  <path d="M 918 476 L 926 476 L 922 490 Z" fill="#d1d5db" transform="rotate(18,922,483)"/>
  <path d="M 919 476 L 921 476 L 922 483 Z" fill="#9ca3af" transform="rotate(18,922,480)"/>

  <!-- ===== 左侧植物 ===== -->
  <!-- 花盆 -->
  <path d="M 155 458 L 215 458 L 208 490 L 162 490 Z" fill="#d97706" filter="url(#shadowSm)"/>
  <rect x="150" y="451" width="70" height="10" rx="5" fill="#f59e0b"/>
  <!-- 土壤 -->
  <ellipse cx="185" cy="455" rx="33" ry="5" fill="#92400e"/>
  <!-- 植物叶子 -->
  <path d="M 185 450 C 175 430 155 420 160 405 C 165 395 185 400 185 450" fill="#16a34a" opacity="0.85"/>
  <path d="M 185 450 C 195 428 215 418 210 402 C 205 390 183 398 185 450" fill="#15803d" opacity="0.8"/>
  <path d="M 185 450 C 170 440 148 445 145 430 C 142 418 168 415 185 450" fill="#16a34a" opacity="0.7"/>
  <path d="M 185 450 C 200 438 222 443 225 428 C 228 415 202 413 185 450" fill="#15803d" opacity="0.65"/>
  <path d="M 185 450 C 180 430 178 410 188 400 C 196 392 195 418 185 450" fill="#22c55e" opacity="0.6"/>
  <!-- 叶脉 -->
  <path d="M 185 450 C 175 430 160 418 161 407" stroke="#15803d" stroke-width="0.8" fill="none" opacity="0.5"/>
  <path d="M 185 450 C 195 428 212 420 210 404" stroke="#166534" stroke-width="0.8" fill="none" opacity="0.5"/>

  <!-- ===== 右侧书堆 ===== -->
  <!-- 投影 -->
  <ellipse cx="1190" cy="455" rx="72" ry="8" fill="#c8a878" opacity="0.25" filter="url(#blurSm)"/>
  <!-- 第四本（底部） -->
  <rect x="1140" y="412" width="100" height="16" rx="3" fill="#7c3aed" filter="url(#shadowSm)"/>
  <rect x="1140" y="412" width="8" height="16" rx="2" fill="#6d28d9"/>
  <rect x="1145" y="415" width="60" height="3" rx="1.5" fill="#a78bfa" opacity="0.5"/>
  <!-- 第三本 -->
  <rect x="1138" y="397" width="104" height="16" rx="3" fill="#0891b2"/>
  <rect x="1138" y="397" width="8" height="16" rx="2" fill="#0e7490"/>
  <rect x="1143" y="400" width="55" height="3" rx="1.5" fill="#67e8f9" opacity="0.5"/>
  <!-- 第二本 -->
  <rect x="1142" y="382" width="96" height="16" rx="3" fill="#d97706"/>
  <rect x="1142" y="382" width="8" height="16" rx="2" fill="#b45309"/>
  <rect x="1147" y="385" width="50" height="3" rx="1.5" fill="#fde68a" opacity="0.5"/>
  <!-- 第一本（顶部，略微歪一点） -->
  <rect x="1144" y="366" width="98" height="17" rx="3" fill="#dc2626" transform="rotate(-1,1193,374)"/>
  <rect x="1144" y="366" width="8" height="17" rx="2" fill="#b91c1c" transform="rotate(-1,1193,374)"/>
  <rect x="1149" y="369" width="52" height="3" rx="1.5" fill="#fca5a5" opacity="0.5" transform="rotate(-1,1175,370)"/>

  <!-- ===== 装饰元素：小物件 ===== -->
  <!-- 右侧笔筒 -->
  <rect x="1240" y="400" width="45" height="55" rx="8" fill="#fbbf24" opacity="0.85" filter="url(#shadowSm)"/>
  <ellipse cx="1262" cy="400" rx="22" ry="7" fill="#f59e0b"/>
  <!-- 笔筒里的笔 -->
  <rect x="1252" y="355" width="5" height="48" rx="2.5" fill="#ef4444"/>
  <rect x="1255" y="353" width="2" height="4" rx="1" fill="#dc2626"/>
  <rect x="1260" y="358" width="5" height="44" rx="2.5" fill="#1e40af"/>
  <rect x="1262" y="356" width="2" height="4" rx="1" fill="#1d4ed8"/>
  <rect x="1268" y="362" width="5" height="40" rx="2.5" fill="#16a34a"/>
  <rect x="1270" y="360" width="2" height="4" rx="1" fill="#15803d"/>
  <!-- 橡皮擦 -->
  <rect x="1275" y="418" width="28" height="16" rx="4" fill="#fde68a" transform="rotate(-15,1289,426)" filter="url(#shadowSm)"/>
  <rect x="1275" y="418" width="10" height="16" rx="3" fill="#f59e0b" opacity="0.7" transform="rotate(-15,1289,426)"/>

  <!-- ===== 装饰星形/光点 ===== -->
  <text x="295" y="200" font-size="16" fill="#f59e0b" opacity="0.35">✦</text>
  <text x="1100" y="150" font-size="12" fill="#f59e0b" opacity="0.3">✦</text>
  <text x="130" y="350" font-size="10" fill="#f59e0b" opacity="0.25">✦</text>
  <text x="1340" y="300" font-size="14" fill="#f59e0b" opacity="0.28">✦</text>

  <!-- 底部渐变遮罩（平滑融合桌面） -->
  <rect x="0" y="570" width="1400" height="30" fill="#d4b896" opacity="0.4"/>
</svg>
